<svg width="177" height="54" viewBox="0 0 177 54" fill="none" xmlns="http://www.w3.org/2000/svg">
<path d="M98.7544 25.8586C96.0649 28.6436 88.9081 35.4211 88.9081 35.4211C88.9081 35.4211 81.1555 28.1112 78.701 25.5449C77.6079 24.4049 76.5457 23.2005 75.4189 20.8422C74.0775 18.0404 74.0434 12.1807 74.0434 12.1807H78.8267C78.8267 12.1807 78.5581 18.6308 81.4994 21.6917C84.5093 24.8245 88.9355 29.2167 88.9355 29.2167C88.9355 29.2167 93.995 24.2239 96.0582 21.6917C99.1018 17.9547 98.942 12.1807 98.942 12.1807H103.828C103.828 12.1807 103.6 18.02 102.255 21.0299C101.73 22.2037 100.188 24.3778 98.7579 25.8555L98.7544 25.8586Z" fill="#FF8831"/>
<path d="M94.873 35.0764C96.5924 36.7351 98.2543 38.3596 99.1699 39.3187C100.263 40.4583 101.325 41.6632 102.452 44.0214C103.793 46.8228 103.828 52.6825 103.828 52.6825H99.0438C99.0438 52.6825 99.3129 46.2328 96.3711 43.1714C94.904 41.6423 93.0992 39.8169 91.6352 38.3458C91.6117 38.3219 91.5675 38.2709 91.5675 38.2709L94.8186 35.0285C94.8186 35.0285 94.8527 35.0627 94.8699 35.0764H94.873Z" fill="#FF8831"/>
<path d="M5.41485 23.5656C5.41485 29.5818 6.90632 32.0084 12.3468 32.0084H13.0722C16.4561 32.0084 18.3118 31.0804 19.2381 29.0597C19.3572 28.7767 19.6395 28.6161 19.963 28.6161C20.4468 28.6161 20.811 28.9812 20.811 29.466C20.811 29.5854 20.7698 29.6674 20.7291 29.7868C19.6023 32.3327 17.3041 33.6262 13.0722 33.6262H12.3468C5.6565 33.6262 3.80124 30.4762 3.80124 24.0535V19.8113C3.80124 14.8424 7.63125 12.0543 12.5478 12.0543C18.3901 12.0543 21.5736 14.7608 21.5736 19.8113V21.9513C21.5736 22.8385 20.8482 23.5687 19.9599 23.5687H5.41131L5.41485 23.5656ZM19.963 21.9477V19.8082C19.963 15.8086 17.3448 13.6686 12.5478 13.6686C8.51639 13.6686 5.41485 15.8902 5.41485 19.8082V21.9477H19.963Z" fill="#8D8D8D"/>
<path d="M44.2248 26.0702C44.2248 28.9781 42.2912 33.6227 36.8914 33.6227H33.9903C28.5905 33.6227 26.6569 28.9781 26.6569 26.0702V18.7568C26.6569 14.515 30.0001 12.092 33.912 12.092H36.9763C39.2339 12.092 41.2901 12.9007 42.6178 14.3544V4.77858C42.6178 4.33497 42.9789 3.96988 43.425 3.96988C43.8707 3.96988 44.2319 4.33497 44.2319 4.77858V26.0671L44.2248 26.0702ZM33.9089 13.7094C30.8852 13.7094 28.267 15.5251 28.267 18.7603V26.0737C28.267 28.3774 29.7585 32.0119 33.9903 32.0119H36.8914C41.1232 32.0119 42.6147 28.3774 42.6147 26.0737V18.7603C42.6147 15.5286 39.9964 13.7094 36.9728 13.7094H33.9089Z" fill="#8D8D8D"/>
<path d="M67.3597 26.0702C67.3597 28.9781 65.4261 33.6227 60.0263 33.6227H57.1253C51.7255 33.6227 49.7919 28.9781 49.7919 26.0702V18.7568C49.7919 14.515 53.1386 12.092 57.0469 12.092H60.1113C62.3684 12.092 64.425 12.9007 65.7527 14.3544V4.77858C65.7527 4.33497 66.117 3.96988 66.56 3.96988C67.0026 3.96988 67.3668 4.33497 67.3668 4.77858V26.0671L67.3597 26.0702ZM57.0403 13.7094C54.0171 13.7094 51.3988 15.5251 51.3988 18.7603V26.0737C51.3988 28.3774 52.8899 32.0119 57.1222 32.0119H60.0228C64.2546 32.0119 65.7461 28.3774 65.7461 26.0737V18.7603C65.7461 15.5286 63.1279 13.7094 60.1047 13.7094H57.0403Z" fill="#8D8D8D"/>
<path d="M110.174 33.6262C109.731 33.6262 109.367 33.2642 109.367 32.8171C109.367 32.3704 109.731 32.0084 110.174 32.0084H116.987C120.936 32.0084 122.989 30.5139 122.989 27.0395C122.989 24.2514 121.178 23.6849 116.987 22.9578C112.915 22.272 109.489 21.7876 109.489 17.3852C109.489 13.4672 112.472 12.0512 116.946 12.0512H122.788C123.231 12.0512 123.595 12.4163 123.595 12.8599C123.595 13.3035 123.231 13.6686 122.788 13.6686H116.946C113.439 13.6686 111.103 14.6379 111.103 17.3852C111.103 20.3747 113.926 20.8183 117.269 21.3848C122.39 22.272 124.603 23.0022 124.603 27.0395C124.603 31.6433 121.985 33.6227 116.987 33.6227H110.174V33.6262Z" fill="#8D8D8D"/>
<path d="M138.102 33.6262C133.71 33.6262 130.364 30.7969 130.364 26.5582V19.4905C130.364 15.2895 133.629 12.0578 138.102 12.0578H141.085C145.559 12.0578 148.861 15.2895 148.861 19.4905V26.5582C148.861 30.8004 145.477 33.6262 141.085 33.6262H138.102ZM141.085 32.0119C144.551 32.0119 147.251 29.8311 147.251 26.5582V19.4905C147.251 16.218 144.633 13.6721 141.085 13.6721H138.102C134.558 13.6721 131.978 16.218 131.978 19.4905V26.5582C131.978 29.8311 134.64 32.0119 138.102 32.0119H141.085Z" fill="#8D8D8D"/>
<path d="M171.714 18.7195C171.714 15.4874 169.092 13.6686 166.031 13.6686H162.967C159.906 13.6686 157.285 15.4874 157.285 18.7195V32.8171C157.285 33.2611 156.921 33.6262 156.478 33.6262C156.035 33.6262 155.671 33.2642 155.671 32.8171V18.7195C155.671 14.4773 159.055 12.0512 162.964 12.0512H166.028C169.937 12.0512 173.321 14.4742 173.321 18.7195V32.8171C173.321 33.2611 172.956 33.6262 172.514 33.6262C172.071 33.6262 171.707 33.2642 171.707 32.8171V18.7195H171.714Z" fill="#8D8D8D"/>
<path d="M94.7438 7.44381C94.7438 10.6587 92.1428 13.2658 88.9355 13.2658C85.7282 13.2658 83.1272 10.6587 83.1272 7.44381C83.1272 4.22895 85.7282 1.62184 88.9355 1.62184C92.1428 1.62184 94.7438 4.22895 94.7438 7.44381Z" fill="#8D8D8D"/>
</svg>
